<?xml version="1.0" encoding="UTF-8"?>
<!DOCTYPE svg PUBLIC "-//W3C//DTD SVG 1.1//EN" "http://www.w3.org/Graphics/SVG/1.1/DTD/svg11.dtd">
<!-- Creator: CorelDRAW X8 -->
<svg xmlns="http://www.w3.org/2000/svg" xml:space="preserve" width="210mm" height="210mm" version="1.1" style="shape-rendering:geometricPrecision; text-rendering:geometricPrecision; image-rendering:optimizeQuality; fill-rule:evenodd; clip-rule:evenodd"
viewBox="0 0 21000 21000"
 xmlns:xlink="http://www.w3.org/1999/xlink">
 <defs>
  <style type="text/css">
   <![CDATA[
    .fil0 {fill:black}
   ]]>
  </style>
 </defs>
 <g id="Capa_x0020_1">
  <metadata id="CorelCorpID_0Corel-Layer"/>
  <path class="fil0" d="M1737 18123c0,689 558,1248 1247,1248l14973 0c689,0 1248,-559 1248,-1248l0 -14973c0,-688 -559,-1247 -1248,-1247l-14973 -1c-689,1 -1247,560 -1247,1249l0 14972zm18716 0c-1,1378 -1118,2496 -2496,2496l-14973 0c-1378,0 -2495,-1118 -2495,-2496l0 -14973c0,-1377 1117,-2495 2495,-2495l14973 0c1378,0 2495,1118 2495,2496l1 14972zm-10606 -10347l114 7781 1347 -29 0 -7694 2464 2621c117,117 276,183 442,183 345,0 625,-280 625,-625 0,-165 -66,-325 -183,-442l-3744 -3743c-117,-117 -276,-183 -441,-183 -166,0 -325,66 -442,183l-3743 3744c-117,116 -183,276 -183,441 0,345 279,625 624,625 166,0 325,-66 442,-183l2678 -2679 0 0z"/>
 </g>
</svg>
